#!OML:ASF F:\VICON\USERDATA\INSTALL\rory3\rory3.ASF
:FULLY-SPECIFIED
:DEGREES
54
root 1.051776589304884 17.859143490022085 39.13751994068657 -3.972020882536191 -1.1835955735976325 -5.991491620026181
lfemur -12.701468362085441 0.522758629779287 -11.045648321396335
ltibia 60.534277240553465
lfoot -7.660218018392665 1.671721833307347
ltoes -12.48660794364826
rfemur -9.2791813266271 3.213151147404539 31.008337664379702
rtibia 28.666788110800184
rfoot -17.170827683128003 -12.215072216115908
rtoes -3.61443984678404
lowerback nan -0.07908714019126736 3.214042674155002
upperback 0.04953255376045272 0.730090533331291 2.6906156734498183
thorax -6.311136476840795 0.35867092323870314 1.382958719290217
lowerneck -17.14223871459496 -3.3628695607441923 -1.362383376125857
upperneck 21.477137759301193 -4.468608128562447 0.8696249196625672
head 9.643070028564782 -2.123551800192325 -0.025426609755440727
lclavicle -2.57231705962193e-15 -2.7723020276067673e-15
lhumerus -33.57077188816825 4.2003330400426755 83.26149928250267
lradius 21.986641870560817
lwrist 11.098806909917448
lhand -29.971027519113555 18.048804970309554
lfingers nan
lthumb -3.267530713955352 47.73453003838608
rclavicle -2.534797998800534e-15 -2.7490774357286185e-15
rhumerus -30.538329349315703 -23.611640182894543 -73.2242992463933
rradius 30.168136360927818
rwrist 1.7871488163332487
rhand -17.53304171310079 nan
rfingers nan
rthumb 8.67927902112827 -7.376551014635854
55
root 1.0978778719330113 17.859294179071714 40.15527987273222 -3.885773487694979 -0.5376234301199955 -6.493245338604188
lfemur -16.381057780020654 0.37447275067424624 -11.254785516183551
ltibia 60.20052927336689
lfoot -7.710375799156036 2.308583381909186
ltoes -14.246054920924381
rfemur -7.53941386191464 2.7696405206233394 31.308426026362827
rtibia 28.000800490253
rfoot -14.767430194694327 -11.111886578003187
rtoes -4.170313451731505
lowerback nan 0.08264919321147374 3.9414313611026204
upperback 0.025706338602195566 1.1603515262655157 2.6714662911638243
thorax -6.27296545916467 0.5328996040626723 0.6890511186394508
lowerneck -17.068348908844506 -3.461677765518889 -1.3287530803260155
upperneck 21.428413754238615 -4.651569375631932 0.9465484117379519
head 9.640397542967587 -2.1873263092494364 -0.03763272708111057
lclavicle -2.5713707419514854e-15 -2.773188750878858e-15
lhumerus -34.49787635709317 5.122491494155197 83.11040817874675
lradius 22.71741377103353
lwrist 11.234739533562614
lhand -30.055173259881382 17.97386494892481
lfingers nan
lthumb -3.342873134946707 47.7347090182195
rclavicle -2.534291697714836e-15 -2.751620491319288e-15
rhumerus -29.24369240268828 -22.43990048754334 -73.26308853691384
rradius 30.625806405262857
rwrist 3.0839339723134054
rhand -17.471948824191923 nan
rfingers nan
rthumb 8.663789568289943 -6.932625661934338
56
root 1.1473766909233631 17.869076996061757 41.089581759056735 -3.844106592308985 -0.03420755391796096 -6.66730512375732
lfemur -19.478007050596286 -0.10100366549391504 -12.033739898535371
ltibia 58.10041203134442
lfoot -8.185747310675328 1.9840713765002023
ltoes -15.02233935837122
rfemur -5.537608937860989 2.723710343890378 31.582963247693083
rtibia 27.53239057311041
rfoot -11.904708471161527 -10.192360797531991
rtoes -3.766610406468649
lowerback nan 0.2663350295095224 4.428061754582218
upperback -0.08822714536560833 1.4555984317500221 2.5266825474287566
thorax -6.2583922242676575 0.6769112535656967 0.10720348990585449
lowerneck -16.956728992134906 -3.5660880126483265 -1.3384568083978787
upperneck 21.447535670358224 -4.84455947954982 1.0342782079917858
head 9.654675633091376 -2.255456429557013 -0.04304152571319411
lclavicle -2.568041604676392e-15 -2.7737916364863324e-15
lhumerus -35.07270779898323 5.819325730147364 82.89672221677648
lradius 23.463870700800282
lwrist 11.22974120073626
lhand -30.08595389421607 17.92706211858651
lfingers nan
lthumb -3.3402726806599703 47.79040614916245
rclavicle -2.5369652069529273e-15 -2.759806372278718e-15
rhumerus -28.206120294800282 -21.312330640223905 -73.3157666315419
rradius 31.21357732850939
rwrist 4.802579762210889
rhand -17.529231271557695 nan
rfingers nan
rthumb 8.660537718323198 -6.463572909707754
57
root 1.1896171136967537 17.892980989056014 42.35598747708535 -3.6394146522324085 0.3235111193465746 -7.064551180057997
lfemur -21.404895750564645 -0.6690805739614409 -12.646414793306894
ltibia 54.23703773260333
lfoot -8.25744878603503 2.603213049968328
ltoes -16.283085163247097
rfemur -4.990701110010029 2.815847293930757 31.69195378138705
rtibia 28.235891164651463
rfoot -9.322760016562624 -9.762400695809356
rtoes -2.413691750428682
lowerback nan 0.43347562777557325 5.026982575433881
upperback -0.1951663811087949 1.7726724724325125 2.4126607006175718
thorax -6.221736327550667 0.8224821936052391 -0.41816177406934485
lowerneck -16.815984482532475 -3.667888256641473 -1.369568396081939
upperneck 21.525349438978388 -5.032120367083033 1.1284786251757466
head 9.679610733246662 -2.3205861353664607 -0.03768297508963289
lclavicle -2.5675073535978225e-15 -2.7756865805166765e-15
lhumerus -35.3284909582205 6.179979487247665 82.67438477058667
lradius 24.19820646035847
lwrist 11.052947653507012
lhand -29.97876756428418 17.99338159984258
lfingers nan
lthumb -3.241967793921189 47.91092826955707
rclavicle -2.5395936510748656e-15 -2.766837183392584e-15
rhumerus -27.411859084554465 -20.262942371826075 -73.4189296824092
rradius 31.855650188079117
rwrist 5.47531831450866
rhand -17.578800175807277 nan
rfingers nan
rthumb 8.596911395050714 -6.4594139491740235
58
root 1.233782691093162 17.924199832687123 43.67854095486911 -3.5653620082990254 0.5648425854159663 -6.925188090661429
lfemur -21.666107048518356 -1.109691772699832 -13.446920789478199
ltibia 48.668885684573894
lfoot -7.932665146178524 1.949216484788383
ltoes -17.23683767675999
rfemur -4.668587911415269 3.0076069464311 31.63456876300089
rtibia 30.072556237592543
rfoot -6.918327513137634 -9.683358261386903
rtoes -0.4048711722341176
lowerback nan 0.5908571925381082 5.1334240537665545
upperback -0.2692490303034941 1.8894439544828985 2.2109108587699726
thorax -6.108648002457305 0.9027431151727149 -0.6616357032242337
lowerneck -16.633912227467224 -3.7559763508565087 -1.4303031697922046
upperneck 21.618189848306216 -5.191097488555303 1.2586025979144018
head 9.707539012839524 -2.3730931295684083 -0.00901465473439736
lclavicle -2.568598594246262e-15 -2.7781492449198373e-15
lhumerus -35.233872335449725 6.213343415035551 82.51165022536027
lradius 24.902404059810127
lwrist 10.808111063131594
lhand -29.975412129888866 17.898108911885025
lfingers nan
lthumb -3.229487645767592 47.918398149641
rclavicle -2.5413235311683087e-15 -2.772470443486267e-15
rhumerus -26.83778899131697 -19.294041329526163 -73.57648687353642
rradius 32.45474665523034
rwrist 4.261616465942795
rhand -17.595733105839663 nan
rfingers nan
rthumb 8.635232383135797 -6.629479815250379
59
root 1.2633080857623025 17.950901586142432 44.15889430669604 -3.556410580462038 0.8117782227785668 -7.03584824886307
lfemur -21.341192862572782 -1.50342349303732 -13.91039396142105
ltibia 42.3382608577704
lfoot -7.815114657268398 1.3604246644756572
ltoes -16.85320780322491
rfemur -5.227302083266517 3.0564242379589786 31.547072171915076
rtibia 33.042767876554244
rfoot -5.218320159078235 -10.077549953483304
rtoes 2.032929098214184
lowerback nan 0.7452844978358932 5.345866179834504
upperback -0.3283170985457345 2.0844562369269113 2.1076120872878645
thorax -6.008602032214526 0.9872301136403349 -0.980184930900929
lowerneck -16.440683605807365 -3.83480146896623 -1.5183269284938117
upperneck 21.716699343729857 -5.329803935079283 1.4206334817299657
head 9.749936042989102 -2.4144151841953887 0.034231178022036124
lclavicle -2.5691177125181314e-15 -2.779287424739526e-15
lhumerus -34.850427683643694 5.903964642106466 82.41943815001686
lradius 25.587082165502213
lwrist 10.57066227673487
lhand -29.96298222482726 18.03149846216276
lfingers nan
lthumb -3.22423154040818 48.04775153655358
rclavicle -2.5416306920402425e-15 -2.774747819836981e-15
rhumerus -26.509656856115747 -18.41825350871437 -73.78325542989347
rradius 32.93680856831821
rwrist 2.3892318961963985
rhand -17.53529684674975 nan
rfingers nan
rthumb 8.635775460084938 -7.06968026446657
60
root 1.2753650337803042 17.96487314832242 44.40054617222221 -3.5899018046430013 1.050838230730614 -7.146720916095328
lfemur -20.534074165446228 -1.8402121791900194 -14.375473446092737
ltibia 36.059813715891316
lfoot -7.6067458568407025 -0.16105052036506384
ltoes -17.004510228208378
rfemur -5.410067888249253 3.0964389604917786 31.623082815040565
rtibia 36.29228774399057
rfoot -4.282485583073667 -10.748732389139938
rtoes 4.4154205543324085
lowerback nan 0.8382115960706387 5.401637524848298
upperback -0.3687805018604437 2.2052815471891667 2.080475285300866
thorax -5.937317828781173 1.0438537309640268 -1.208735105935313
lowerneck -16.282672627161396 -3.892745189008927 -1.6088619688142973
upperneck 21.774115206652358 -5.431784281865508 1.6065379523586059
head 9.78229076476727 -2.440601037311385 0.09234567322879722
lclavicle -2.5691330079083348e-15 -2.7802086470283496e-15
lhumerus -34.23950996975758 5.324419101733138 82.37554766356129
lradius 26.25460086006253
lwrist 10.322894884414442
lhand -29.966034735905136 18.128403413737285
lfingers nan
lthumb -3.196788194362374 48.22896351473996
rclavicle -2.54368982267441e-15 -2.7784784380876276e-15
rhumerus -26.424120285357528 -17.648444516903375 -74.06082638392185
rradius 33.25086642583756
rwrist 1.3331849930818884
rhand -17.516595697081787 nan
rfingers nan
rthumb 8.674271581233862 -7.346462142997143
